# Blender v2.92.0 OBJ File: ''
# www.blender.org
mtllib beat.mtl
o Cube_Cube.002
v 0.124454 0.900000 0.900000
v 0.174455 0.900000 1.000000
v 0.174455 1.000000 0.900000
v 0.131134 0.900000 0.949934
v 0.131134 0.949934 0.900000
v 0.137623 0.947821 0.947821
v 0.174455 0.949934 0.986640
v 0.149487 0.900000 0.986640
v 0.150544 0.947821 0.973663
v 0.149487 0.986640 0.900000
v 0.174455 0.986640 0.949934
v 0.150544 0.973663 0.947821
v 1.074455 0.900000 1.000000
v 1.124454 0.900000 0.900000
v 1.074455 1.000000 0.900000
v 1.099422 0.900000 0.986640
v 1.074455 0.949934 0.986640
v 1.098365 0.947821 0.973663
v 1.117775 0.949934 0.900000
v 1.117775 0.900000 0.949934
v 1.111286 0.947821 0.947821
v 1.074455 0.986640 0.949934
v 1.099422 0.986640 0.900000
v 1.098365 0.973663 0.947821
v 0.124454 0.900000 -0.900000
v 0.174455 1.000000 -0.900000
v 0.174455 0.900000 -1.000000
v 0.131134 0.949934 -0.900000
v 0.131134 0.900000 -0.949934
v 0.137623 0.947821 -0.947821
v 0.174455 0.986640 -0.949934
v 0.149487 0.986640 -0.900000
v 0.150544 0.973663 -0.947821
v 0.149487 0.900000 -0.986640
v 0.174455 0.949934 -0.986640
v 0.150544 0.947821 -0.973663
v 1.124454 0.900000 -0.900000
v 1.074455 0.900000 -1.000000
v 1.074455 1.000000 -0.900000
v 1.117775 0.900000 -0.949934
v 1.117775 0.949934 -0.900000
v 1.111286 0.947821 -0.947821
v 1.074455 0.949934 -0.986640
v 1.099422 0.900000 -0.986640
v 1.098365 0.947821 -0.973663
v 1.099422 0.986640 -0.900000
v 1.074455 0.986640 -0.949934
v 1.098365 0.973663 -0.947821
v 0.124454 -0.900000 0.900000
v 0.174455 -1.000000 0.900000
v 0.174455 -0.900000 1.000000
v 0.131134 -0.949934 0.900000
v 0.131134 -0.900000 0.949934
v 0.137623 -0.947821 0.947821
v 0.174455 -0.986640 0.949934
v 0.149487 -0.986640 0.900000
v 0.150544 -0.973663 0.947821
v 0.149487 -0.900000 0.986640
v 0.174455 -0.949934 0.986640
v 0.150544 -0.947821 0.973663
v 1.124454 -0.900000 0.900000
v 1.074455 -0.900000 1.000000
v 1.074455 -1.000000 0.900000
v 1.117775 -0.900000 0.949934
v 1.117775 -0.949934 0.900000
v 1.111286 -0.947821 0.947821
v 1.074455 -0.949934 0.986640
v 1.099422 -0.900000 0.986640
v 1.098365 -0.947821 0.973663
v 1.099422 -0.986640 0.900000
v 1.074455 -0.986640 0.949934
v 1.098365 -0.973663 0.947821
v 0.124454 -0.900000 -0.900000
v 0.174455 -0.900000 -1.000000
v 0.174455 -1.000000 -0.900000
v 0.131134 -0.900000 -0.949934
v 0.131134 -0.949934 -0.900000
v 0.137623 -0.947821 -0.947821
v 0.174455 -0.949934 -0.986640
v 0.149487 -0.900000 -0.986640
v 0.150544 -0.947821 -0.973663
v 0.149487 -0.986640 -0.900000
v 0.174455 -0.986640 -0.949934
v 0.150544 -0.973663 -0.947821
v 1.124454 -0.900000 -0.900000
v 1.074455 -1.000000 -0.900000
v 1.074455 -0.900000 -1.000000
v 1.117775 -0.949934 -0.900000
v 1.117775 -0.900000 -0.949934
v 1.111286 -0.947821 -0.947821
v 1.074455 -0.986640 -0.949934
v 1.099422 -0.986640 -0.900000
v 1.098365 -0.973663 -0.947821
v 1.099422 -0.900000 -0.986640
v 1.074455 -0.949934 -0.986640
v 1.098365 -0.947821 -0.973663
vt 0.387500 0.762500
vt 0.612500 0.762500
vt 0.612500 0.987500
vt 0.387500 0.987500
vt 0.387500 0.512500
vt 0.612500 0.512500
vt 0.612500 0.737500
vt 0.387500 0.737500
vt 0.637500 0.512500
vt 0.862500 0.512500
vt 0.862500 0.737500
vt 0.637500 0.737500
vt 0.387500 0.012500
vt 0.612500 0.012500
vt 0.612500 0.237500
vt 0.387500 0.237500
vt 0.387500 0.262500
vt 0.612500 0.262500
vt 0.612500 0.487500
vt 0.387500 0.487500
vt 0.137500 0.737500
vt 0.137500 0.743742
vt 0.131522 0.743478
vt 0.131258 0.737500
vt 0.137500 0.750000
vt 0.131522 0.750000
vt 0.387500 0.993742
vt 0.381522 0.993478
vt 0.381258 0.987500
vt 0.387500 0.001670
vt 0.387500 0.000000
vt 0.381522 0.000000
vt 0.381522 0.003292
vt 0.381258 0.012500
vt 0.381522 0.006522
vt 0.387500 0.006258
vt 0.126670 0.737500
vt 0.125000 0.737500
vt 0.125000 0.743478
vt 0.128292 0.743478
vt 0.125000 0.743478
vt 0.618742 0.987500
vt 0.618478 0.993478
vt 0.612500 0.993742
vt 0.625000 0.987500
vt 0.625000 0.993478
vt 0.868742 0.737500
vt 0.868478 0.743478
vt 0.862500 0.743742
vt 0.623330 0.012500
vt 0.625000 0.012500
vt 0.625000 0.006522
vt 0.621708 0.006522
vt 0.612500 0.006258
vt 0.618478 0.006522
vt 0.618742 0.012500
vt 0.612500 0.000000
vt 0.618478 0.000000
vt 0.618478 1.000000
vt 0.137500 0.512500
vt 0.131258 0.512500
vt 0.131522 0.506522
vt 0.137500 0.506258
vt 0.125000 0.512500
vt 0.125000 0.506522
vt 0.387500 0.243742
vt 0.381522 0.243478
vt 0.381258 0.237500
vt 0.387500 0.250000
vt 0.381522 0.250000
vt 0.381258 0.262500
vt 0.381522 0.256522
vt 0.387500 0.256258
vt 0.137500 0.501670
vt 0.137500 0.500000
vt 0.131522 0.500000
vt 0.131522 0.503292
vt 0.131522 0.500000
vt 0.862500 0.506258
vt 0.868478 0.506522
vt 0.868742 0.512500
vt 0.623330 0.262500
vt 0.625000 0.262500
vt 0.625000 0.256522
vt 0.621708 0.256522
vt 0.612500 0.256258
vt 0.618478 0.256522
vt 0.618742 0.262500
vt 0.612500 0.250000
vt 0.618478 0.250000
vt 0.618742 0.237500
vt 0.618478 0.243478
vt 0.612500 0.243742
vt 0.625000 0.237500
vt 0.625000 0.243478
vt 0.362500 0.737500
vt 0.368742 0.737500
vt 0.368478 0.743478
vt 0.362500 0.743742
vt 0.375000 0.737500
vt 0.375000 0.743478
vt 0.387500 0.743742
vt 0.381522 0.743478
vt 0.381258 0.737500
vt 0.387500 0.750000
vt 0.381522 0.750000
vt 0.381258 0.762500
vt 0.381522 0.756522
vt 0.387500 0.756258
vt 0.362500 0.748330
vt 0.362500 0.750000
vt 0.368478 0.750000
vt 0.368478 0.746708
vt 0.368478 0.750000
vt 0.637500 0.743742
vt 0.631522 0.743478
vt 0.631258 0.737500
vt 0.623330 0.762500
vt 0.625000 0.762500
vt 0.625000 0.756522
vt 0.621708 0.756522
vt 0.612500 0.756258
vt 0.618478 0.756522
vt 0.618742 0.762500
vt 0.612500 0.750000
vt 0.618478 0.750000
vt 0.618742 0.737500
vt 0.618478 0.743478
vt 0.612500 0.743742
vt 0.625000 0.737500
vt 0.625000 0.743478
vt 0.362500 0.512500
vt 0.362500 0.506258
vt 0.368478 0.506522
vt 0.368742 0.512500
vt 0.362500 0.500000
vt 0.368478 0.500000
vt 0.387500 0.493742
vt 0.381522 0.493478
vt 0.381258 0.487500
vt 0.387500 0.500000
vt 0.381522 0.500000
vt 0.381258 0.512500
vt 0.381522 0.506522
vt 0.387500 0.506258
vt 0.375000 0.512500
vt 0.375000 0.506522
vt 0.375000 0.506522
vt 0.631258 0.512500
vt 0.631522 0.506522
vt 0.637500 0.506258
vt 0.625000 0.512500
vt 0.625000 0.506522
vt 0.612500 0.506258
vt 0.618478 0.506522
vt 0.618742 0.512500
vt 0.612500 0.500000
vt 0.618478 0.500000
vt 0.618742 0.487500
vt 0.618478 0.493478
vt 0.612500 0.493742
vt 0.625000 0.487500
vt 0.625000 0.493478
vt 0.621708 0.506522
vt 0.125000 0.737500
vt 0.387500 0.000000
vt 0.625000 0.012500
vt 0.137500 0.500000
vt 0.625000 0.262500
vt 0.362500 0.750000
vt 0.625000 0.762500
vn 0.0000 0.0000 1.0000
vn 0.0000 -1.0000 0.0000
vn 1.0000 0.0000 0.0000
vn 0.0000 1.0000 0.0000
vn 0.0000 0.0000 -1.0000
vn -0.9816 0.1351 0.1351
vn -0.8857 0.1397 0.4428
vn -0.4690 0.2345 0.8515
vn -0.4075 0.6457 0.6457
vn -0.4690 0.8515 0.2345
vn -0.8857 0.4428 0.1397
vn -0.8165 0.4082 0.4082
vn 0.4690 0.2345 0.8515
vn 0.8857 0.1397 0.4428
vn 0.9816 0.1351 0.1351
vn 0.8857 0.4428 0.1397
vn 0.4690 0.8515 0.2345
vn 0.4075 0.6457 0.6457
vn 0.8165 0.4082 0.4082
vn -0.9816 0.1351 -0.1351
vn -0.8857 0.4428 -0.1397
vn -0.4690 0.8515 -0.2345
vn -0.4075 0.6457 -0.6457
vn -0.4690 0.2345 -0.8515
vn -0.8857 0.1397 -0.4428
vn -0.8165 0.4082 -0.4082
vn 0.9816 0.1351 -0.1351
vn 0.8857 0.1397 -0.4428
vn 0.4690 0.2345 -0.8515
vn 0.4075 0.6457 -0.6457
vn 0.4690 0.8515 -0.2345
vn 0.8857 0.4428 -0.1397
vn 0.8165 0.4082 -0.4082
vn -0.9816 -0.1351 0.1351
vn -0.8857 -0.4428 0.1397
vn -0.4690 -0.8515 0.2345
vn -0.4075 -0.6457 0.6457
vn -0.4690 -0.2345 0.8515
vn -0.8857 -0.1397 0.4428
vn -0.8165 -0.4082 0.4082
vn 0.9816 -0.1351 0.1351
vn 0.8857 -0.1397 0.4428
vn 0.4690 -0.2345 0.8515
vn 0.4075 -0.6457 0.6457
vn 0.4690 -0.8515 0.2345
vn 0.8857 -0.4428 0.1397
vn 0.8165 -0.4082 0.4082
vn -0.9816 -0.1351 -0.1351
vn -0.8857 -0.1397 -0.4428
vn -0.4690 -0.2345 -0.8515
vn -0.4075 -0.6457 -0.6457
vn -0.4690 -0.8515 -0.2345
vn -0.8857 -0.4428 -0.1397
vn -0.8165 -0.4082 -0.4082
vn 0.9816 -0.1351 -0.1351
vn 0.8857 -0.4428 -0.1397
vn 0.4690 -0.8515 -0.2345
vn 0.4075 -0.6457 -0.6457
vn 0.4690 -0.2345 -0.8515
vn 0.8857 -0.1397 -0.4428
vn 0.8165 -0.4082 -0.4082
vn -0.9912 0.1326 0.0000
vn -0.8944 0.4472 0.0000
vn -0.4718 0.8817 0.0000
vn 0.0000 0.2585 0.9660
vn 0.0000 0.7071 0.7071
vn 0.0000 0.9660 0.2585
vn 0.9912 0.1326 0.0000
vn 0.8944 0.4472 0.0000
vn 0.4718 0.8817 0.0000
vn 0.0000 0.2585 -0.9660
vn 0.0000 0.7071 -0.7071
vn 0.0000 0.9660 -0.2585
vn -0.9912 0.0000 -0.1326
vn -0.8944 0.0000 -0.4472
vn -0.4718 0.0000 -0.8817
vn 0.9912 0.0000 -0.1326
vn 0.8944 0.0000 -0.4472
vn 0.4718 0.0000 -0.8817
vn 0.0000 -0.9660 -0.2585
vn 0.0000 -0.7071 -0.7071
vn 0.0000 -0.2585 -0.9660
vn -0.9912 -0.1326 0.0000
vn -0.8944 -0.4472 0.0000
vn -0.4718 -0.8817 0.0000
vn 0.9912 -0.1326 0.0000
vn 0.8944 -0.4472 0.0000
vn 0.4718 -0.8817 0.0000
vn 0.0000 -0.2585 0.9660
vn 0.0000 -0.7071 0.7071
vn 0.0000 -0.9660 0.2585
vn -0.9912 0.0000 0.1326
vn -0.8944 0.0000 0.4472
vn -0.4718 0.0000 0.8817
vn 0.9912 0.0000 0.1326
vn 0.8944 0.0000 0.4472
vn 0.4718 0.0000 0.8817
vn -1.0000 0.0000 0.0000
usemtl None
s off
f 51/1/1 62/2/1 13/3/1 2/4/1
f 75/5/2 86/6/2 63/7/2 50/8/2
f 85/9/3 37/10/3 14/11/3 61/12/3
f 3/13/4 15/14/4 39/15/4 26/16/4
f 27/17/5 38/18/5 87/19/5 74/20/5
f 1/21/6 4/22/6 6/23/6 5/24/6
f 4/22/7 8/25/7 9/26/7 6/23/7
f 2/4/8 7/27/8 9/28/8 8/29/8
f 7/30/9 11/31/9 12/32/9 9/33/9
f 3/13/10 10/34/10 12/35/10 11/36/10
f 10/37/11 5/38/11 6/39/11 12/40/11
f 6/23/12 9/26/12 12/41/12
f 13/3/13 16/42/13 18/43/13 17/44/13
f 16/42/14 20/45/14 21/46/14 18/43/14
f 14/11/15 19/47/15 21/48/15 20/49/15
f 19/50/16 23/51/16 24/52/16 21/53/16
f 15/14/17 22/54/17 24/55/17 23/56/17
f 22/54/18 17/57/18 18/58/18 24/55/18
f 18/43/19 21/46/19 24/59/19
f 25/60/20 28/61/20 30/62/20 29/63/20
f 28/61/21 32/64/21 33/65/21 30/62/21
f 26/16/22 31/66/22 33/67/22 32/68/22
f 31/66/23 35/69/23 36/70/23 33/67/23
f 27/17/24 34/71/24 36/72/24 35/73/24
f 34/74/25 29/75/25 30/76/25 36/77/25
f 30/62/26 33/65/26 36/78/26
f 37/10/27 40/79/27 42/80/27 41/81/27
f 40/82/28 44/83/28 45/84/28 42/85/28
f 38/18/29 43/86/29 45/87/29 44/88/29
f 43/86/30 47/89/30 48/90/30 45/87/30
f 39/15/31 46/91/31 48/92/31 47/93/31
f 46/91/32 41/94/32 42/95/32 48/92/32
f 42/85/33 45/84/33 48/90/33
f 49/96/34 52/97/34 54/98/34 53/99/34
f 52/97/35 56/100/35 57/101/35 54/98/35
f 50/8/36 55/102/36 57/103/36 56/104/36
f 55/102/37 59/105/37 60/106/37 57/103/37
f 51/1/38 58/107/38 60/108/38 59/109/38
f 58/110/39 53/111/39 54/112/39 60/113/39
f 54/98/40 57/101/40 60/114/40
f 61/12/41 64/115/41 66/116/41 65/117/41
f 64/118/42 68/119/42 69/120/42 66/121/42
f 62/2/43 67/122/43 69/123/43 68/124/43
f 67/122/44 71/125/44 72/126/44 69/123/44
f 63/7/45 70/127/45 72/128/45 71/129/45
f 70/127/46 65/130/46 66/131/46 72/128/46
f 66/121/47 69/120/47 72/126/47
f 73/132/48 76/133/48 78/134/48 77/135/48
f 76/133/49 80/136/49 81/137/49 78/134/49
f 74/20/50 79/138/50 81/139/50 80/140/50
f 79/138/51 83/141/51 84/142/51 81/139/51
f 75/5/52 82/143/52 84/144/52 83/145/52
f 82/143/53 77/146/53 78/147/53 84/144/53
f 78/134/54 81/137/54 84/148/54
f 85/9/55 88/149/55 90/150/55 89/151/55
f 88/149/56 92/152/56 93/153/56 90/150/56
f 86/6/57 91/154/57 93/155/57 92/156/57
f 91/154/58 95/157/58 96/158/58 93/155/58
f 87/19/59 94/159/59 96/160/59 95/161/59
f 94/159/60 89/162/60 90/163/60 96/160/60
f 90/164/61 93/153/61 96/158/61
f 25/60/62 1/21/62 5/24/62 28/61/62
f 28/61/63 5/24/63 10/165/63 32/64/63
f 32/68/64 10/34/64 3/13/64 26/16/64
f 2/4/65 13/3/65 17/44/65 7/27/65
f 7/166/66 17/57/66 22/54/66 11/36/66
f 11/36/67 22/54/67 15/14/67 3/13/67
f 14/11/68 37/10/68 41/81/68 19/47/68
f 19/167/69 41/94/69 46/91/69 23/56/69
f 23/56/70 46/91/70 39/15/70 15/14/70
f 38/18/71 27/17/71 35/73/71 43/86/71
f 43/86/72 35/73/72 31/66/72 47/93/72
f 47/93/73 31/66/73 26/16/73 39/15/73
f 73/132/74 25/60/74 29/63/74 76/133/74
f 76/133/75 29/63/75 34/168/75 80/136/75
f 80/140/76 34/71/76 27/17/76 74/20/76
f 37/10/77 85/9/77 89/151/77 40/79/77
f 40/169/78 89/162/78 94/159/78 44/88/78
f 44/88/79 94/159/79 87/19/79 38/18/79
f 86/6/80 75/5/80 83/145/80 91/154/80
f 91/154/81 83/145/81 79/138/81 95/161/81
f 95/161/82 79/138/82 74/20/82 87/19/82
f 49/96/83 73/132/83 77/135/83 52/97/83
f 52/97/84 77/135/84 82/143/84 56/104/84
f 56/104/85 82/143/85 75/5/85 50/8/85
f 85/9/86 61/12/86 65/117/86 88/149/86
f 88/149/87 65/117/87 70/127/87 92/156/87
f 92/156/88 70/127/88 63/7/88 86/6/88
f 62/2/89 51/1/89 59/109/89 67/122/89
f 67/122/90 59/109/90 55/102/90 71/129/90
f 71/129/91 55/102/91 50/8/91 63/7/91
f 1/21/92 49/96/92 53/99/92 4/22/92
f 4/22/93 53/99/93 58/170/93 8/25/93
f 8/29/94 58/107/94 51/1/94 2/4/94
f 61/12/95 14/11/95 20/49/95 64/115/95
f 64/171/96 20/45/96 16/42/96 68/124/96
f 68/124/97 16/42/97 13/3/97 62/2/97
f 25/60/98 73/132/98 49/96/98 1/21/98
